<svg width="128" height="128" viewBox="0 0 128 128" fill="none" xmlns="http://www.w3.org/2000/svg">
  <rect width="128" height="128" rx="28" fill="#EAF4FF"/>
  <path d="M39 49C39 36.85 48.85 27 61 27H79C91.15 27 101 36.85 101 49V78C101 90.15 91.15 100 79 100H71.5L60.5 108.5C57.84 110.56 54 108.66 54 105.3V98.9C45.27 96.01 39 87.77 39 78V49Z" fill="#1F77B4"/>
  <path d="M56.5 42C50.7 42 46 46.7 46 52.5V70.5C46 76.3 50.7 81 56.5 81C58.97 81 61.24 80.15 63.03 78.73L66.9 85.78C67.79 87.4 69.74 88.12 71.48 87.48L77.06 85.43C78.82 84.78 79.84 82.94 79.45 81.11L77.49 72.04C80.92 69.94 83.2 66.16 83.2 61.84V52.5C83.2 46.7 78.5 42 72.7 42H56.5Z" fill="white"/>
  <path d="M57.6 50.2C55.55 50.2 53.9 51.85 53.9 53.9V66.8C53.9 68.85 55.55 70.5 57.6 70.5C58.72 70.5 59.72 70 60.4 69.21L62.63 73.27L67.1 71.62L65.34 63.64C67.62 63.25 69.35 61.27 69.35 58.88V53.9C69.35 51.85 67.7 50.2 65.65 50.2H57.6Z" fill="#1F77B4"/>
  <circle cx="59.5" cy="57.2" r="2" fill="white"/>
  <path d="M81.5 57.3C87.3 57.3 92 62 92 67.8C92 73.6 87.3 78.3 81.5 78.3H76.9V70.7H80.4C81.79 70.7 82.9 69.59 82.9 68.2C82.9 66.81 81.79 65.7 80.4 65.7H76.9V57.3H81.5Z" fill="#8EC5F2"/>
  <path d="M34 37L27 30.5V94.5L34 88V37Z" fill="#F39C12"/>
  <path d="M27 30.5H82.5C88.3 30.5 93 35.2 93 41V44.5H34L27 37V30.5Z" fill="#F5B041"/>
</svg>
