<svg width="128" height="128" viewBox="0 0 128 128" fill="none" xmlns="http://www.w3.org/2000/svg">
  <rect width="128" height="128" rx="28" fill="#E6F4FF"/>
  <path d="M66.7 24.5C54.1 24.5 45 33.3 45 46.6V76c0 9.2 6.3 17 15.1 19.2v9.6c0 3.4 3.9 5.3 6.6 3.2l10.2-7.9h8.4c12.2 0 22.2-9.8 22.2-22V46.7c0-12.2-10-22.2-22.2-22.2H66.7Z" fill="#336791"/>
  <path d="M60.4 37.6c-4.9 0-8.8 3.9-8.8 8.8v22.8c0 4.8 3.9 8.7 8.8 8.7 1.9 0 3.7-.6 5.1-1.7l4.1 7.4c1 1.7 3.1 2.4 4.9 1.7l6.1-2.4c1.8-.7 2.7-2.7 2.2-4.5l-2.4-8.4c2.5-1.6 4.2-4.4 4.2-7.7V46.4c0-4.9-3.9-8.8-8.8-8.8H60.4Z" fill="white"/>
  <path d="M61.8 45.6c-1.8 0-3.2 1.4-3.2 3.2V66c0 1.8 1.4 3.2 3.2 3.2 1.1 0 2-.5 2.6-1.3l2 3.5 4-1.6-1.7-5.8c1.8-.3 3.1-1.9 3.1-3.8V48.8c0-1.8-1.4-3.2-3.2-3.2h-6.8Z" fill="#336791"/>
  <circle cx="63.8" cy="53.2" r="1.8" fill="white"/>
  <path d="M79.9 56.1c4.8 0 8.8 3.8 8.8 8.6 0 4.8-4 8.6-8.8 8.6h-3.5v-6.4h2.7c1.2 0 2.1-.9 2.1-2.1 0-1.1-.9-2.1-2.1-2.1h-2.7v-6.6h3.5Z" fill="#D9ECF7"/>
  <path d="M87.6 41.5c6.2 0 11.2 5 11.2 11.2v21.2c0 6.2-5 11.2-11.2 11.2h-2.3c7-1.8 12.1-8.1 12.1-15.6V49.3c0-2.9-1.1-5.6-2.8-7.8h-7Z" fill="#2D5F86"/>
</svg>
